<svg width="42" height="40" viewBox="0 0 42 40" fill="none" xmlns="http://www.w3.org/2000/svg">
<path d="M26.288 14.5388L26.2989 14.5717L26.332 14.582L40.5354 18.9905C40.7573 19.0595 40.9505 19.1946 41.0873 19.3761C41.2241 19.5576 41.2976 19.776 41.2976 20C41.2976 20.2241 41.224 20.4425 41.0872 20.6239C40.9504 20.8054 40.7572 20.9405 40.5352 21.0095L26.332 25.418L26.2989 25.4283L26.288 25.4612L21.729 39.1957C21.6581 39.4091 21.5188 39.5957 21.3308 39.7283C21.1427 39.8609 20.9157 39.9325 20.6825 39.9325C20.4492 39.9325 20.2222 39.8609 20.0342 39.7283C19.8461 39.5957 19.7069 39.4091 19.636 39.1957L15.077 25.4612L15.0661 25.4283L15.033 25.418L0.829755 21.0095C0.607815 20.9405 0.414638 20.8054 0.277796 20.6239C0.140981 20.4425 0.0674579 20.224 0.0674579 20C0.0674579 19.776 0.140982 19.5575 0.277796 19.3761C0.414638 19.1946 0.607815 19.0595 0.829746 18.9905L15.033 14.582L15.0661 14.5717L15.077 14.5388L19.636 0.80429C19.7069 0.590847 19.8461 0.404257 20.0342 0.271676C20.2222 0.139073 20.4492 0.0674579 20.6825 0.0674579C20.9157 0.0674579 21.1427 0.139073 21.3308 0.271676C21.5188 0.404257 21.6581 0.590847 21.729 0.80428L26.288 14.5388ZM36.3826 19.9325H20.8493L24.647 16.2602L24.6971 16.2117L24.647 16.1632C24.5235 16.0439 24.4314 15.898 24.3782 15.7377L20.7465 4.79667L20.615 4.81792V19.8409L16.8119 16.1632L16.7651 16.1179L16.7182 16.1632C16.5946 16.2825 16.4433 16.3719 16.2767 16.4237L4.96233 19.9356L4.98233 20.0675H20.5157L16.718 23.7398L16.6678 23.7883L16.718 23.8368C16.8415 23.9561 16.9335 24.102 16.9867 24.2623L20.6185 35.2033L20.7499 35.1821V20.1591L24.5532 23.8368L24.6001 23.8822L24.647 23.8368C24.7704 23.7175 24.9217 23.6281 25.0883 23.5763L36.4026 20.0644L36.3826 19.9325Z" fill="white" stroke="white" stroke-width="0.134916"/>
</svg>
