<svg width="144" height="40" viewBox="0 0 144 40" fill="none" xmlns="http://www.w3.org/2000/svg">
<path d="M39.2171 18.9261L25.4824 14.5176L21.0739 0.783028C21.0009 0.555619 20.8575 0.357266 20.6645 0.216545C20.4715 0.075823 20.2388 0 20 0C19.7611 0 19.5285 0.075823 19.3355 0.216545C19.1425 0.357266 18.9991 0.555619 18.9261 0.783028L14.5176 14.5176L0.783028 18.9261C0.555619 18.9991 0.357266 19.1425 0.216545 19.3355C0.075823 19.5285 0 19.7611 0 20C0 20.2388 0.075823 20.4715 0.216545 20.6645C0.357266 20.8575 0.555619 21.0009 0.783028 21.0739L14.5176 25.4824L18.9261 39.217C18.9991 39.4444 19.1425 39.6427 19.3355 39.7835C19.5285 39.9242 19.7611 40 20 40C20.2388 40 20.4715 39.9242 20.6645 39.7835C20.8575 39.6427 21.0009 39.4444 21.0739 39.217L25.4824 25.4824L39.217 21.0739C39.4444 21.0009 39.6427 20.8575 39.7835 20.6646C39.9242 20.4716 40.0001 20.2389 40.0001 20.0001C40.0001 19.7612 39.9243 19.5285 39.7836 19.3355C39.6429 19.1425 39.4445 18.9992 39.2171 18.9261ZM24.2411 23.5119C24.0703 23.5668 23.9151 23.6615 23.7883 23.7883L20 20V35.1821L16.4881 24.2411C16.4333 24.0703 16.3385 23.9151 16.2117 23.7883L20 20H4.81792L15.7589 16.4881C15.9297 16.4332 16.0849 16.3385 16.2118 16.2117L20 20V4.81792L23.5119 15.7589C23.5667 15.9297 23.6615 16.0849 23.7883 16.2117L20 20H35.1821L24.2411 23.5119Z" fill="white"/>
<path d="M25.0576 5.2875C29.4573 6.83255 33.0063 10.3817 34.5512 14.7811C34.6286 15.0016 34.7726 15.1926 34.9632 15.3278C35.1538 15.463 35.3817 15.5356 35.6154 15.5357C35.7393 15.5357 35.8655 15.5151 35.989 15.4716C36.1288 15.4226 36.2575 15.3465 36.3678 15.2477C36.4781 15.1489 36.5679 15.0293 36.632 14.8958C36.6962 14.7623 36.7334 14.6175 36.7415 14.4696C36.7496 14.3218 36.7286 14.1737 36.6795 14.034C34.9099 8.99441 30.8448 4.92902 25.8052 3.15939C25.6655 3.11026 25.5174 3.08915 25.3695 3.09726C25.2216 3.10537 25.0768 3.14254 24.9433 3.20665C24.8097 3.27076 24.6902 3.36055 24.5914 3.47089C24.4926 3.58123 24.4165 3.70996 24.3674 3.84972C24.3183 3.98944 24.2972 4.13747 24.3053 4.28536C24.3134 4.43324 24.3505 4.57808 24.4146 4.7116C24.4787 4.84512 24.5685 4.96471 24.6788 5.06352C24.7891 5.16234 24.9178 5.23845 25.0576 5.2875ZM3.8498 15.4716C3.96982 15.514 4.09617 15.5357 4.22345 15.5357C4.45713 15.5356 4.68503 15.463 4.87565 15.3278C5.06628 15.1927 5.21021 15.0016 5.28759 14.7811C6.83248 10.3817 10.3815 6.83255 14.7812 5.2875C14.921 5.23844 15.0497 5.16234 15.16 5.06352C15.2703 4.96471 15.3601 4.84513 15.4242 4.71162C15.4883 4.5781 15.5255 4.43326 15.5336 4.28538C15.5418 4.13749 15.5207 3.98945 15.4716 3.84972C15.4225 3.70995 15.3464 3.58121 15.2476 3.47085C15.1488 3.3605 15.0293 3.27071 14.8957 3.20659C14.7622 3.14248 14.6173 3.10531 14.4694 3.09721C14.3215 3.08911 14.1735 3.11024 14.0338 3.15939C8.99418 4.92918 4.92895 8.99441 3.15947 14.034C3.11037 14.1737 3.08928 14.3217 3.0974 14.4696C3.10552 14.6175 3.1427 14.7623 3.20681 14.8958C3.27091 15.0293 3.36069 15.1489 3.47102 15.2477C3.58135 15.3465 3.71006 15.4226 3.8498 15.4716ZM35.989 24.367C35.7068 24.268 35.3968 24.2851 35.1272 24.4146C34.8576 24.5441 34.6505 24.7753 34.5514 25.0575C33.0065 29.4569 29.4575 33.0061 25.0577 34.5511C24.918 34.6002 24.7893 34.6763 24.679 34.7751C24.5686 34.8739 24.4788 34.9935 24.4147 35.127C24.3506 35.2605 24.3135 35.4054 24.3053 35.5533C24.2972 35.7012 24.3183 35.8492 24.3674 35.9889C24.4448 36.2094 24.5888 36.4004 24.7794 36.5355C24.97 36.6706 25.1979 36.7432 25.4315 36.7433C25.5555 36.7433 25.6817 36.7228 25.8054 36.6793C30.8449 34.9095 34.9102 30.8442 36.6797 25.8047C36.7287 25.6649 36.7497 25.5169 36.7416 25.369C36.7334 25.2211 36.6962 25.0763 36.6321 24.9428C36.568 24.8093 36.4781 24.6897 36.3678 24.5909C36.2575 24.4922 36.1288 24.4161 35.989 24.367ZM14.7812 34.5511C10.3815 33.0061 6.83248 29.4569 5.28759 25.0575C5.23854 24.9178 5.16245 24.7891 5.06366 24.6787C4.96486 24.5684 4.8453 24.4786 4.7118 24.4145C4.5783 24.3504 4.43348 24.3132 4.2856 24.305C4.13772 24.2969 3.98969 24.3179 3.84996 24.367C3.71021 24.4161 3.5815 24.4922 3.47117 24.591C3.36083 24.6897 3.27104 24.8093 3.20692 24.9428C3.1428 25.0763 3.10561 25.2211 3.09747 25.369C3.08933 25.5169 3.11039 25.6649 3.15947 25.8047C4.92911 30.8442 8.99418 34.9095 14.0338 36.6793C14.1538 36.7216 14.2802 36.7433 14.4076 36.7433C14.6739 36.7434 14.9316 36.6492 15.1352 36.4775C15.3387 36.3057 15.4749 36.0675 15.5197 35.805C15.5644 35.5424 15.5148 35.2725 15.3797 35.0431C15.2445 34.8136 15.0325 34.6393 14.7812 34.5511Z" fill="white"/>
<path d="M67.1886 28.4182C65.2298 29.4746 63.048 30.0028 60.6432 30.0028C57.8623 30.0028 55.6105 29.1455 53.8878 27.4311C52.1651 25.7167 51.3037 23.448 51.3037 20.6253C51.3037 17.7419 52.2438 15.378 54.1239 13.5337C56.0128 11.6807 58.4089 10.7542 61.3121 10.7542C63.4021 10.7542 65.1598 11.0573 66.5853 11.6634V14.8455C65.1424 13.893 63.424 13.4168 61.4302 13.4168C59.4276 13.4168 57.7836 14.0706 56.4981 15.378C55.2214 16.6855 54.583 18.3783 54.583 20.4564C54.583 22.5952 55.1339 24.2793 56.2358 25.5088C57.3376 26.7297 58.833 27.3402 60.7219 27.3402C62.0161 27.3402 63.1354 27.0934 64.0799 26.5999V22.1709H60.1185V19.5732H67.1886V28.4182Z" fill="white"/>
<path d="M82.6145 29.691H79.5713V27.587H79.5188C78.6356 29.1975 77.2627 30.0028 75.4 30.0028C72.2256 30.0028 70.6385 28.1151 70.6385 24.3399V16.3911H73.6817V24.0282C73.6817 26.418 74.613 27.6129 76.4756 27.6129C77.3763 27.6129 78.1153 27.2839 78.6924 26.6258C79.2783 25.9678 79.5713 25.1062 79.5713 24.0412V16.3911H82.6145V29.691Z" fill="white"/>
<path d="M89.6453 29.691H86.589V10.0009H89.6453V29.691Z" fill="white"/>
<path d="M96.6761 29.691H93.6198V10.0009H96.6761V29.691Z" fill="white"/>
<path d="M102.185 13.5987C101.687 13.5987 101.258 13.4385 100.9 13.1181C100.55 12.7977 100.375 12.3907 100.375 11.8972C100.375 11.4036 100.55 10.9923 100.9 10.6633C101.258 10.3343 101.687 10.1698 102.185 10.1698C102.701 10.1698 103.139 10.3343 103.497 10.6633C103.856 10.9923 104.035 11.4036 104.035 11.8972C104.035 12.3648 103.856 12.7674 103.497 13.1051C103.139 13.4341 102.701 13.5987 102.185 13.5987ZM103.694 29.691H100.651V16.3911H103.694V29.691Z" fill="white"/>
<path d="M119.251 16.3911L114.056 29.691H110.764L105.819 16.3911H109.124L112.102 25.6907C112.329 26.3747 112.469 26.9722 112.522 27.483H112.561C112.64 26.8423 112.762 26.2622 112.928 25.7426L116.05 16.3911H119.251Z" fill="white"/>
<path d="M132.486 23.8593H123.33C123.365 25.0889 123.746 26.037 124.471 26.7038C125.206 27.3705 126.212 27.7038 127.488 27.7038C128.923 27.7038 130.239 27.2796 131.437 26.431V28.8598C130.212 29.6218 128.595 30.0028 126.583 30.0028C124.607 30.0028 123.055 29.401 121.927 28.1974C120.807 26.9852 120.248 25.2837 120.248 23.093C120.248 21.0236 120.864 19.3394 122.097 18.0406C123.339 16.7331 124.878 16.0794 126.715 16.0794C128.551 16.0794 129.972 16.6639 130.978 17.8328C131.983 19.0017 132.486 20.6253 132.486 22.7034V23.8593ZM129.548 21.7293C129.539 20.6469 129.281 19.807 128.774 19.2096C128.267 18.6034 127.567 18.3004 126.675 18.3004C125.801 18.3004 125.057 18.6164 124.445 19.2485C123.842 19.8806 123.47 20.7075 123.33 21.7293H129.548Z" fill="white"/>
<path d="M143.177 19.2615C142.809 18.9758 142.28 18.8329 141.589 18.8329C140.689 18.8329 139.937 19.2355 139.333 20.0408C138.73 20.8461 138.428 21.9414 138.428 23.3268V29.691H135.385V16.3911H138.428V19.1316H138.481C138.778 18.1965 139.233 17.4691 139.845 16.9496C140.466 16.4214 141.157 16.1573 141.917 16.1573C142.468 16.1573 142.888 16.2396 143.177 16.4041V19.2615Z" fill="white"/>
</svg>
